<svg xmlns="http://www.w3.org/2000/svg" width="15.476" height="15.457" viewBox="0 0 15.476 15.457">
  <path id="Icon_feather-phone" data-name="Icon feather-phone" d="M15.006,11.881v1.786a1.19,1.19,0,0,1-1.3,1.19A11.78,11.78,0,0,1,8.571,13.03,11.607,11.607,0,0,1,5,9.458,11.78,11.78,0,0,1,3.173,4.3,1.19,1.19,0,0,1,4.357,3H6.143a1.19,1.19,0,0,1,1.19,1.024A7.643,7.643,0,0,0,7.75,5.7a1.19,1.19,0,0,1-.268,1.256l-.756.756A9.524,9.524,0,0,0,10.3,11.28l.756-.756a1.19,1.19,0,0,1,1.256-.268,7.643,7.643,0,0,0,1.673.417,1.19,1.19,0,0,1,1.024,1.208Z" transform="matrix(-0.174, -0.985, 0.985, -0.174, 0.521, 18.228)" fill="none" stroke="#fff" stroke-linecap="round" stroke-linejoin="round" stroke-width="1.5"/>
</svg>
